# xmcd CD database file
#
# Track frame offsets:
#	182
#	25725
#	42510
#	61640
#	80215
#	103315
#	139430
#	162677
#	173437
#	196662
#	213167
#	233342
#
# Disc length: 3317 seconds
#
# Revision: 18
# Processed by: cddbd v1.5.2PL0 Copyright (c) Steve Scherf et al.
# Submitted via: CDex 2.09
#
DISCID=9d0cf30c
DTITLE=Rory Gallagher - Fresh Evidence
DYEAR=1990
DGENRE=Blues
TTITLE0=Kid Gloves
TTITLE1=The King Of Zydeco
TTITLE2=Middle Name
TTITLE3=Alexis
TTITLE4=Empire State Express
TTITLE5=Ghost Blues
TTITLE6=Heaven's Gate
TTITLE7=The Loop
TTITLE8=Walkin' Wounded
TTITLE9=Slumming Angel
TTITLE10=Never Asked You For Nothin'
TTITLE11=Bowed Not Broken
EXTD=YEAR: 1990
EXTT0=
EXTT1=
EXTT2=
EXTT3=
EXTT4=
EXTT5=
EXTT6=
EXTT7=
EXTT8=
EXTT9=
EXTT10=
EXTT11=
PLAYORDER=
